<svg width="497" height="497" viewBox="0 0 497 497" fill="none" xmlns="http://www.w3.org/2000/svg">
<g clip-path="url(#clip0_1295_33)">
<path d="M496.158 248.085C496.158 111.063 385.089 0.00305176 248.083 0.00305176C111.07 0.00305176 0 111.063 0 248.085C0 385.086 111.07 496.155 248.083 496.155C385.089 496.155 496.158 385.086 496.158 248.085Z" fill="#8E44AD"/>
<path d="M138.216 173.592C138.216 159.677 142.683 145.577 151.619 131.295C160.552 117.013 173.592 105.185 190.73 95.8089C207.869 86.4359 227.864 81.7469 250.715 81.7469C271.953 81.7469 290.705 85.6679 306.965 93.5019C323.225 101.34 335.783 111.997 344.648 125.472C353.509 138.951 357.941 153.597 357.941 169.417C357.941 181.869 355.414 192.784 350.36 202.156C345.306 211.532 339.298 219.625 332.342 226.435C325.383 233.247 312.896 244.71 294.879 260.823C289.898 265.365 285.904 269.358 282.904 272.799C279.9 276.242 277.665 279.391 276.202 282.246C274.736 285.103 273.599 287.959 272.796 290.816C271.989 293.671 270.781 298.691 269.171 305.867C266.387 321.103 257.67 328.719 243.024 328.719C235.406 328.719 228.996 326.23 223.798 321.248C218.597 316.269 215.998 308.871 215.998 299.056C215.998 286.751 217.9 276.094 221.711 267.086C225.519 258.076 230.572 250.166 236.872 243.356C243.168 236.544 251.666 228.452 262.36 219.076C271.733 210.874 278.51 204.684 282.685 200.509C286.86 196.334 290.375 191.686 293.232 186.556C296.088 181.43 297.517 175.865 297.517 169.857C297.517 158.139 293.157 148.252 284.443 140.194C275.726 132.14 264.482 128.109 250.715 128.109C234.599 128.109 222.734 132.174 215.119 140.304C207.501 148.434 201.057 160.409 195.783 176.229C190.802 192.784 181.353 201.058 167.438 201.058C159.232 201.058 152.311 198.167 146.674 192.379C141.035 186.593 138.216 180.331 138.216 173.592ZM245.442 414.412C236.505 414.412 228.705 411.517 222.041 405.732C215.374 399.948 212.043 391.855 212.043 381.453C212.043 372.224 215.263 364.462 221.711 358.162C228.155 351.865 236.065 348.714 245.441 348.714C254.67 348.714 262.432 351.865 268.732 358.162C275.028 364.462 278.18 372.224 278.18 381.453C278.18 391.708 274.884 399.765 268.292 405.623C261.7 411.481 254.084 414.412 245.442 414.412Z" fill="white"/>
</g>
<defs>
<clipPath id="clip0_1295_33">
<rect width="496.158" height="496.158" fill="white"/>
</clipPath>
</defs>
</svg>
